<svg xmlns="http://www.w3.org/2000/svg" fill="#77777d" fill-rule="evenodd" stroke-linejoin="round" stroke-miterlimit="2" clip-rule="evenodd" viewBox="0 0 32 32" id="check-package"><path d="M23 16c-3.863 0-7 3.137-7 7s3.137 7 7 7 7-3.137 7-7-3.137-7-7-7ZM4 26h9a1 1 0 0 0 0-2H4V5a1 1 0 0 1 1-1h6v8a1 1 0 0 0 1.447.894L16 11.118l3.553 1.776A1 1 0 0 0 21 12V4h6a1 1 0 0 1 1 1v10a1 1 0 0 0 2 0V5c0-1.656-1.344-3-3-3H5C3.344 2 2 3.344 2 5v22c0 1.656 1.344 3 3 3h10a1 1 0 0 0 0-2H5a1 1 0 0 1-1-1v-1Zm19-8c2.76 0 5 2.24 5 5s-2.24 5-5 5-5-2.24-5-5 2.24-5 5-5Zm-3.207 5.707 2 2a.999.999 0 0 0 1.414 0l3-3a1 1 0 0 0-1.414-1.414L22.5 23.586l-1.293-1.293a1 1 0 0 0-1.414 1.414ZM19 4h-6v6.382l2.553-1.276a.998.998 0 0 1 .894 0L19 10.382V4Z"></path></svg>