<svg xmlns="http://www.w3.org/2000/svg" fill="#77777d" data-name="Layer 1" viewBox="0 0 64 64"><path d="M57,23a5,5,0,0,0-4.581,3L48.954,22.54a4.975,4.975,0,0,0-2.02-3.572l4.278-1.6A4.988,4.988,0,1,0,56.2,11.021L48.919,9.2a4.991,4.991,0,1,0-7.03,5.319l-5.261,4.6A5,5,0,0,0,33,16.1V11.9a5,5,0,1,0-2,0v4.2a5,5,0,0,0-3.628,3.02l-5.261-4.6A4.991,4.991,0,1,0,15.081,9.2L7.8,11.021a4.991,4.991,0,1,0,4.952,6.471l4.585,2.292a4.975,4.975,0,0,0-2.28,3.693l-3.4,2.721a5.025,5.025,0,1,0,.295,2.325l3.4-2.721a4.994,4.994,0,0,0,2.9,2.866l-1.79,2.386a4.975,4.975,0,0,0-.206,9.871l2.8,8.391.026-.008a12.977,12.977,0,0,0,4.992,8.976,4.985,4.985,0,0,1,4.51-4.241,4,4,0,1,1,6.842,0,4.985,4.985,0,0,1,4.51,4.241,12.977,12.977,0,0,0,4.992-8.976l.026.008,2.8-8.391a4.975,4.975,0,0,0-.143-9.864L45.6,27.716A5,5,0,0,0,48.581,25l3.465,3.465A4.988,4.988,0,1,0,57,23ZM43.4,27.939,45.4,31.284a4.971,4.971,0,0,0,.275,9.517l-1.2,3.591a12.99,12.99,0,0,0-24.964,0l-1.2-3.591a4.975,4.975,0,0,0,.429-9.469l1.79-2.386A4.975,4.975,0,0,0,20.3,19.03l-7.362-3.681A4.957,4.957,0,0,0,11.24,12.22l3.933-.983a4.973,4.973,0,0,0,4.4,3.72L27.05,21.5a4.972,4.972,0,0,0,9.9,0l7.475-6.541a4.973,4.973,0,0,0,4.4-3.72l3.933.983a4.96,4.96,0,0,0-1.687,3.06l-7.322,2.745a4.976,4.976,0,0,0-.354,9.914Z"/><path d="M25,60v2H39V60a4,4,0,0,0-4-4H29A4,4,0,0,0,25,60Z"/><circle cx="32" cy="52" r="2"/></svg>