<svg xmlns="http://www.w3.org/2000/svg" fill="#77777d" enable-background="new 0 0 512 512" viewBox="0 0 512 512" id="quick-response"><g><g><path d="M483.493,97.738l10.08-12.448c11.553-14.258,9.426-35.252-4.925-46.875c-14.342-11.619-35.305-9.362-46.867,4.928
			l-9.528,11.77c-9.83-4.802-20.302-8.482-31.249-10.882V20.984h10c5.522,0,10-4.478,10-10s-4.478-10-10-10c-24.962,0-56.553,0-80,0
			c-5.522,0-10,4.478-10,10s4.478,10,10,10h10v23.247c-62.827,13.772-110,69.853-110,136.753c0,77.196,62.804,140,140,140
			s140-62.804,140-140C511.004,149.829,500.77,121.022,483.493,97.738z M457.327,55.925c4.615-5.7,12.985-6.623,18.732-1.97
			c5.706,4.624,6.628,12.999,1.973,18.746l-7.795,9.626c-6.266-6.303-13.128-12.012-20.491-17.039L457.327,55.925z M361.004,20.984
			h20v20.361c-6.665-0.472-13.094-0.489-20,0V20.984z M371.004,300.984c-66.168,0-120-53.832-120-120s53.832-120,120-120
			s120,53.832,120,120S437.172,300.984,371.004,300.984z"></path><path d="M371.004,80.984c-55.141,0-100,44.859-100,100s44.859,100,100,100s100-44.859,100-100S426.144,80.984,371.004,80.984z
			 M371.004,260.984c-44.112,0-80-35.888-80-80s35.888-80,80-80s80,35.888,80,80S415.116,260.984,371.004,260.984z"></path><path d="M381.004 176.842v-45.857c0-5.522-4.478-10-10-10s-10 4.478-10 10v50c0 2.652 1.054 5.195 2.929 7.071l20 20c3.906 3.904 10.235 3.906 14.143 0 3.905-3.905 3.905-10.237 0-14.143L381.004 176.842zM322.503 360.215c-8.108-17.379-28.841-24.923-46.226-16.814-32.107 14.98-33.332 15.552-53.437 24.933-52.896-58.083-87.946-133.256-98.457-211.031l53.437-24.931c17.38-8.11 24.922-28.847 16.813-46.226l-30.363-65.079c-8.128-17.424-28.808-24.942-46.225-16.814l-66.916 31.22C16.856 51.463-3.017 87.362 1.678 124.804c16.766 133.718 76.113 261.44 167.295 358.803 25.82 27.571 66.037 35.054 99.971 19.224l67.107-31.311c17.424-8.129 24.941-28.805 16.814-46.226L322.503 360.215zM126.503 22.376c7.408-3.453 16.191-.257 19.644 7.146l30.363 65.08c3.456 7.402.256 16.19-7.145 19.644l-14.312 6.677-42.862-91.87L126.503 22.376zM260.488 484.705c-26.26 12.253-57.17 6.316-76.917-14.771C92.882 373.101 37.323 248.315 21.522 122.315c-3.61-28.796 11.686-56.412 38.063-68.719l34.48-16.087 42.862 91.87-27.601 12.877c-3.903 1.821-6.202 5.936-5.706 10.214 10.095 87.1 49.336 171.192 109.582 234.876 2.959 3.128 7.59 4.012 11.493 2.19l27.601-12.878 42.862 91.869L260.488 484.705zM327.595 453.395l-14.311 6.677-42.862-91.869 14.311-6.677c7.385-3.448 16.199-.242 19.645 7.146l30.363 65.08C338.197 441.154 334.997 449.942 327.595 453.395z"></path></g></g></svg>